<?xml version="1.0" standalone="no"?>
<!DOCTYPE svg PUBLIC "-//W3C//DTD SVG 20010904//EN"
 "http://www.w3.org/TR/2001/REC-SVG-20010904/DTD/svg10.dtd">
<svg version="1.0" xmlns="http://www.w3.org/2000/svg"
 width="699.000000pt" height="699.000000pt" viewBox="0 0 699.000000 699.000000"
 preserveAspectRatio="xMidYMid meet">
<metadata>
Created by potrace 1.14, written by Peter Selinger 2001-2017
</metadata>
<g transform="translate(0.000000,699.000000) scale(0.100000,-0.100000)"
fill="#000000" stroke="none">
<path d="M2915 5615 c-5 -2 -35 -11 -65 -20 -48 -15 -125 -63 -171 -107 -8 -7
-54 -47 -104 -88 -49 -42 -160 -134 -245 -205 -85 -72 -163 -137 -173 -145
-10 -8 -28 -23 -40 -33 -12 -11 -40 -33 -62 -50 -60 -49 -143 -135 -159 -165
-7 -15 -34 -83 -60 -152 -26 -69 -51 -134 -56 -145 -5 -11 -36 -94 -70 -185
-34 -91 -66 -174 -70 -185 -8 -18 -46 -117 -100 -260 -10 -27 -39 -103 -64
-168 -25 -64 -46 -122 -46 -127 0 -6 -4 -18 -10 -28 -20 -35 -103 -260 -190
-512 -23 -69 -75 -267 -89 -340 -6 -30 -13 -71 -17 -90 -4 -19 -9 -446 -11
-948 -3 -804 -2 -920 12 -967 19 -67 52 -106 112 -136 l48 -23 520 -2 c604 -2
569 -7 701 103 143 119 166 138 186 155 10 9 38 31 60 50 23 18 74 60 113 93
39 33 94 78 120 100 164 134 253 210 273 235 37 47 54 109 57 210 2 52 4 98 4
101 1 3 38 6 83 5 l82 -1 0 -430 1 -430 28 -56 c27 -56 69 -94 132 -120 22
-10 164 -13 560 -14 493 -2 534 -1 585 17 31 10 67 28 80 41 14 12 90 76 170
142 80 66 154 127 165 137 11 9 54 45 96 80 41 34 97 81 124 103 27 22 68 56
90 75 23 19 61 51 85 70 24 19 49 41 56 47 21 21 55 81 62 110 10 40 9 1816
-1 1888 -5 33 -15 89 -24 125 -8 36 -17 74 -19 85 -9 45 -78 284 -101 349 -30
89 -62 175 -74 201 -7 17 -117 303 -195 510 -12 33 -49 130 -82 215 -32 85
-98 259 -146 385 -124 324 -135 349 -179 397 -18 18 -49 44 -70 57 -84 51 -77
51 -1022 50 -484 0 -884 -2 -890 -4z"/>
</g>
</svg>
